SplineFontDB: 3.2
FontName: AirbusRMP
FullName: AirbusRMP
FamilyName: AirbusRMP
Weight: Regular
Copyright: Copyright (c) 2021, Tyler Knox
UComments: "2021-2-14: Created with FontForge (http://fontforge.org)"
Version: 001.000
ItalicAngle: 0
UnderlinePosition: -100
UnderlineWidth: 50
Ascent: 800
Descent: 200
InvalidEm: 0
LayerCount: 2
Layer: 0 0 "Back" 1
Layer: 1 0 "Fore" 0
XUID: [1021 809 -1304484988 14869]
OS2Version: 0
OS2_WeightWidthSlopeOnly: 0
OS2_UseTypoMetrics: 1
CreationTime: 1613333790
ModificationTime: 1613337650
OS2TypoAscent: 0
OS2TypoAOffset: 1
OS2TypoDescent: 0
OS2TypoDOffset: 1
OS2TypoLinegap: 0
OS2WinAscent: 0
OS2WinAOffset: 1
OS2WinDescent: 0
OS2WinDOffset: 1
HheadAscent: 0
HheadAOffset: 1
HheadDescent: 0
HheadDOffset: 1
OS2Vendor: 'PfEd'
MarkAttachClasses: 1
DEI: 91125
Encoding: ISO8859-1
UnicodeInterp: none
NameList: AGL For New Fonts
DisplaySize: -48
AntiAlias: 1
FitToEm: 0
WinInfo: 0 16 6
BeginPrivate: 0
EndPrivate
BeginChars: 256 25

StartChar: eight
Encoding: 56 56 0
Width: 562
Flags: HW
LayerCount: 2
Fore
SplineSet
304 547 m 25
 348 652 l 17
 382.427734375 636.74609375 390.682617188 611.734375 397 586 c 9
 397 363 l 17
 389.256835938 332.551757812 372.397460938 339.252929688 357 340 c 9
 305 387 l 25
 304 547 l 25
292 97 m 25
 103 98 l 25
 42 28 l 17
 46.31640625 14.30078125 53.8203125 2.7919921875 74 0 c 9
 335 0 l 25
 292 97 l 25
95 279 m 25
 95 279 97 110 97 111 c 0
 97 112 38 44 38 44 c 25
 20 45 l 25
 4 94 l 25
 2 291 l 17
 0.33984375 308.349609375 10.7080078125 316.93359375 41 311 c 9
 95 279 l 25
28 628 m 9
 100 553 l 25
 99 382 l 25
 46 351 l 25
 6 367 l 25
 4 594 l 17
 6.74609375 606.97265625 8.63671875 620.211914062 28 628 c 9
332 657 m 25
 294 563 l 25
 104 565 l 25
 50 624 l 17
 44.2294921875 638.611328125 36.4345703125 653.756835938 70 658 c 9
 332 657 l 25
289 383 m 25
 336 330 l 25
 295 281 l 25
 124 282 l 25
 59 319 l 17
 59 346.25 l 0
 125 383 l 9
 289 383 l 25
392 305 m 9
 394 84 l 17
 390.17578125 56.216796875 384.998046875 29.458984375 357 20 c 1
 343.76953125 20 l 0
 308 111 l 9
 305 273 l 25
 353 322 l 17
 375.774414062 329.428710938 390.528320312 326.112304688 392 305 c 9
EndSplineSet
EndChar

StartChar: period
Encoding: 46 46 1
Width: 0
Flags: HW
LayerCount: 2
Fore
SplineSet
-85 105 m 24
 -58 106 -35 82 -35 55 c 24
 -35 25 -55 -2 -85 -3 c 24
 -114 -4 -134 24 -134 52 c 24
 -134 80 -113 104 -85 105 c 24
EndSplineSet
EndChar

StartChar: zero
Encoding: 48 48 2
Width: 562
Flags: HW
LayerCount: 2
Fore
SplineSet
304 547 m 25
 348 652 l 17
 382.427734375 636.74609375 390.682617188 611.734375 397 586 c 9
 397 363 l 17
 389.256835938 332.551757812 372.397460938 339.252929688 357 340 c 9
 305 387 l 25
 304 547 l 25
292 97 m 25
 103 98 l 25
 42 28 l 17
 46.31640625 14.30078125 53.8203125 2.7919921875 74 0 c 9
 335 0 l 25
 292 97 l 25
95 279 m 25
 95 279 97 110 97 111 c 0
 97 112 38 44 38 44 c 25
 20 45 l 25
 4 94 l 25
 2 291 l 17
 0.33984375 308.349609375 10.7080078125 316.93359375 41 311 c 9
 95 279 l 25
28 628 m 9
 100 553 l 25
 99 382 l 25
 46 351 l 25
 6 367 l 25
 4 594 l 17
 6.74609375 606.97265625 8.63671875 620.211914062 28 628 c 9
332 657 m 25
 294 563 l 25
 104 565 l 25
 50 624 l 17
 44.2294921875 638.611328125 36.4345703125 653.756835938 70 658 c 9
 332 657 l 25
392 305 m 9
 394 84 l 17
 390.17578125 56.216796875 384.998046875 29.458984375 357 20 c 1
 343.76953125 20 l 0
 308 111 l 9
 305 273 l 25
 353 322 l 17
 375.774414062 329.428710938 390.528320312 326.112304688 392 305 c 9
EndSplineSet
EndChar

StartChar: one
Encoding: 49 49 3
Width: 562
Flags: HW
LayerCount: 2
Fore
SplineSet
304 547 m 25
 348 652 l 17
 382.427734375 636.74609375 390.682617188 611.734375 397 586 c 9
 397 363 l 17
 389.256835938 332.551757812 372.397460938 339.252929688 357 340 c 9
 305 387 l 25
 304 547 l 25
392 305 m 9
 394 84 l 17
 390.17578125 56.216796875 384.998046875 29.458984375 357 20 c 1
 343.76953125 20 l 0
 308 111 l 9
 305 273 l 25
 353 322 l 17
 375.774414062 329.428710938 390.528320312 326.112304688 392 305 c 9
EndSplineSet
EndChar

StartChar: two
Encoding: 50 50 4
Width: 562
Flags: HW
LayerCount: 2
Fore
SplineSet
304 547 m 25
 348 652 l 17
 382.427734375 636.74609375 390.682617188 611.734375 397 586 c 9
 397 363 l 17
 389.256835938 332.551757812 372.397460938 339.252929688 357 340 c 9
 305 387 l 25
 304 547 l 25
292 97 m 25
 103 98 l 25
 42 28 l 17
 46.31640625 14.30078125 53.8203125 2.7919921875 74 0 c 9
 335 0 l 25
 292 97 l 25
95 279 m 25
 95 279 97 110 97 111 c 0
 97 112 38 44 38 44 c 25
 20 45 l 25
 4 94 l 25
 2 291 l 17
 0.33984375 308.349609375 10.7080078125 316.93359375 41 311 c 9
 95 279 l 25
332 657 m 25
 294 563 l 25
 104 565 l 25
 50 624 l 17
 44.2294921875 638.611328125 36.4345703125 653.756835938 70 658 c 9
 332 657 l 25
289 383 m 25
 336 330 l 25
 295 281 l 25
 124 282 l 25
 59 319 l 17
 59 346.25 l 0
 125 383 l 9
 289 383 l 25
EndSplineSet
EndChar

StartChar: three
Encoding: 51 51 5
Width: 562
Flags: HW
LayerCount: 2
Fore
SplineSet
304 547 m 25
 348 652 l 17
 382.427734375 636.74609375 390.682617188 611.734375 397 586 c 9
 397 363 l 17
 389.256835938 332.551757812 372.397460938 339.252929688 357 340 c 9
 305 387 l 25
 304 547 l 25
292 97 m 25
 103 98 l 25
 42 28 l 17
 46.31640625 14.30078125 53.8203125 2.7919921875 74 0 c 9
 335 0 l 25
 292 97 l 25
332 657 m 25
 294 563 l 25
 104 565 l 25
 50 624 l 17
 44.2294921875 638.611328125 36.4345703125 653.756835938 70 658 c 9
 332 657 l 25
289 383 m 25
 336 330 l 25
 295 281 l 25
 124 282 l 25
 59 319 l 17
 59 346.25 l 0
 125 383 l 9
 289 383 l 25
392 305 m 9
 394 84 l 17
 390.17578125 56.216796875 384.998046875 29.458984375 357 20 c 1
 343.76953125 20 l 0
 308 111 l 9
 305 273 l 25
 353 322 l 17
 375.774414062 329.428710938 390.528320312 326.112304688 392 305 c 9
EndSplineSet
EndChar

StartChar: four
Encoding: 52 52 6
Width: 562
Flags: HW
LayerCount: 2
Fore
SplineSet
304 547 m 25
 348 652 l 17
 382.427734375 636.74609375 390.682617188 611.734375 397 586 c 9
 397 363 l 17
 389.256835938 332.551757812 372.397460938 339.252929688 357 340 c 9
 305 387 l 25
 304 547 l 25
28 628 m 9
 100 553 l 25
 99 382 l 25
 46 351 l 25
 6 367 l 25
 4 594 l 17
 6.74609375 606.97265625 8.63671875 620.211914062 28 628 c 9
289 383 m 25
 336 330 l 25
 295 281 l 25
 124 282 l 25
 59 319 l 17
 59 346.25 l 0
 125 383 l 9
 289 383 l 25
392 305 m 9
 394 84 l 17
 390.17578125 56.216796875 384.998046875 29.458984375 357 20 c 1
 343.76953125 20 l 0
 308 111 l 9
 305 273 l 25
 353 322 l 17
 375.774414062 329.428710938 390.528320312 326.112304688 392 305 c 9
EndSplineSet
EndChar

StartChar: five
Encoding: 53 53 7
Width: 562
Flags: HW
LayerCount: 2
Fore
SplineSet
292 97 m 25
 103 98 l 25
 42 28 l 17
 46.31640625 14.30078125 53.8203125 2.7919921875 74 0 c 9
 335 0 l 25
 292 97 l 25
28 628 m 9
 100 553 l 25
 99 382 l 25
 46 351 l 25
 6 367 l 25
 4 594 l 17
 6.74609375 606.97265625 8.63671875 620.211914062 28 628 c 9
332 657 m 25
 294 563 l 25
 104 565 l 25
 50 624 l 17
 44.2294921875 638.611328125 36.4345703125 653.756835938 70 658 c 9
 332 657 l 25
289 383 m 25
 336 330 l 25
 295 281 l 25
 124 282 l 25
 59 319 l 17
 59 346.25 l 0
 125 383 l 9
 289 383 l 25
392 305 m 9
 394 84 l 17
 390.17578125 56.216796875 384.998046875 29.458984375 357 20 c 1
 343.76953125 20 l 0
 308 111 l 9
 305 273 l 25
 353 322 l 17
 375.774414062 329.428710938 390.528320312 326.112304688 392 305 c 9
EndSplineSet
EndChar

StartChar: six
Encoding: 54 54 8
Width: 562
Flags: HW
LayerCount: 2
Fore
SplineSet
292 97 m 25
 103 98 l 25
 42 28 l 17
 46.31640625 14.30078125 53.8203125 2.7919921875 74 0 c 9
 335 0 l 25
 292 97 l 25
95 279 m 25
 95 279 97 110 97 111 c 0
 97 112 38 44 38 44 c 25
 20 45 l 25
 4 94 l 25
 2 291 l 17
 0.33984375 308.349609375 10.7080078125 316.93359375 41 311 c 9
 95 279 l 25
28 628 m 9
 100 553 l 25
 99 382 l 25
 46 351 l 25
 6 367 l 25
 4 594 l 17
 6.74609375 606.97265625 8.63671875 620.211914062 28 628 c 9
332 657 m 25
 294 563 l 25
 104 565 l 25
 50 624 l 17
 44.2294921875 638.611328125 36.4345703125 653.756835938 70 658 c 9
 332 657 l 25
289 383 m 25
 336 330 l 25
 295 281 l 25
 124 282 l 25
 59 319 l 17
 59 346.25 l 0
 125 383 l 9
 289 383 l 25
392 305 m 9
 394 84 l 17
 390.17578125 56.216796875 384.998046875 29.458984375 357 20 c 1
 343.76953125 20 l 0
 308 111 l 9
 305 273 l 25
 353 322 l 17
 375.774414062 329.428710938 390.528320312 326.112304688 392 305 c 9
EndSplineSet
EndChar

StartChar: seven
Encoding: 55 55 9
Width: 562
Flags: HW
LayerCount: 2
Fore
SplineSet
304 547 m 25
 348 652 l 17
 382.427734375 636.74609375 390.682617188 611.734375 397 586 c 9
 397 363 l 17
 389.256835938 332.551757812 372.397460938 339.252929688 357 340 c 9
 305 387 l 25
 304 547 l 25
332 657 m 25
 294 563 l 25
 104 565 l 25
 50 624 l 17
 44.2294921875 638.611328125 36.4345703125 653.756835938 70 658 c 9
 332 657 l 25
392 305 m 9
 394 84 l 17
 390.17578125 56.216796875 384.998046875 29.458984375 357 20 c 1
 343.76953125 20 l 0
 308 111 l 9
 305 273 l 25
 353 322 l 17
 375.774414062 329.428710938 390.528320312 326.112304688 392 305 c 9
EndSplineSet
EndChar

StartChar: nine
Encoding: 57 57 10
Width: 562
Flags: HW
LayerCount: 2
Fore
SplineSet
304 547 m 25
 348 652 l 17
 382.427734375 636.74609375 390.682617188 611.734375 397 586 c 9
 397 363 l 17
 389.256835938 332.551757812 372.397460938 339.252929688 357 340 c 9
 305 387 l 25
 304 547 l 25
292 97 m 25
 103 98 l 25
 42 28 l 17
 46.31640625 14.30078125 53.8203125 2.7919921875 74 0 c 9
 335 0 l 25
 292 97 l 25
28 628 m 9
 100 553 l 25
 99 382 l 25
 46 351 l 25
 6 367 l 25
 4 594 l 17
 6.74609375 606.97265625 8.63671875 620.211914062 28 628 c 9
332 657 m 25
 294 563 l 25
 104 565 l 25
 50 624 l 17
 44.2294921875 638.611328125 36.4345703125 653.756835938 70 658 c 9
 332 657 l 25
289 383 m 25
 336 330 l 25
 295 281 l 25
 124 282 l 25
 59 319 l 17
 59 346.25 l 0
 125 383 l 9
 289 383 l 25
392 305 m 9
 394 84 l 17
 390.17578125 56.216796875 384.998046875 29.458984375 357 20 c 1
 343.76953125 20 l 0
 308 111 l 9
 305 273 l 25
 353 322 l 17
 375.774414062 329.428710938 390.528320312 326.112304688 392 305 c 9
EndSplineSet
EndChar

StartChar: hyphen
Encoding: 45 45 12
Width: 562
Flags: HWO
LayerCount: 2
Fore
SplineSet
289 383 m 25
 336 330 l 25
 295 281 l 25
 124 282 l 25
 59 319 l 17
 59 346.25 l 0
 125 383 l 9
 289 383 l 25
EndSplineSet
EndChar

StartChar: C
Encoding: 67 67 13
Width: 562
Flags: HW
LayerCount: 2
Fore
SplineSet
292 97 m 25
 103 98 l 25
 42 28 l 17
 46.31640625 14.30078125 53.8203125 2.7919921875 74 0 c 9
 335 0 l 25
 292 97 l 25
95 279 m 25
 95 279 97 110 97 111 c 0
 97 112 38 44 38 44 c 25
 20 45 l 25
 4 94 l 25
 2 291 l 17
 0.33984375 308.349609375 10.7080078125 316.93359375 41 311 c 9
 95 279 l 25
28 628 m 9
 100 553 l 25
 99 382 l 25
 46 351 l 25
 6 367 l 25
 4 594 l 17
 6.74609375 606.97265625 8.63671875 620.211914062 28 628 c 9
332 657 m 25
 294 563 l 25
 104 565 l 25
 50 624 l 17
 44.2294921875 638.611328125 36.4345703125 653.756835938 70 658 c 9
 332 657 l 25
EndSplineSet
EndChar

StartChar: A
Encoding: 65 65 14
Width: 562
Flags: HW
LayerCount: 2
Fore
SplineSet
304 547 m 25
 348 652 l 17
 382.427734375 636.74609375 390.682617188 611.734375 397 586 c 9
 397 363 l 17
 389.256835938 332.551757812 372.397460938 339.252929688 357 340 c 9
 305 387 l 25
 304 547 l 25
95 279 m 25
 95 279 97 110 97 111 c 0
 97 112 38 44 38 44 c 25
 20 45 l 25
 4 94 l 25
 2 291 l 17
 0.33984375 308.349609375 10.7080078125 316.93359375 41 311 c 9
 95 279 l 25
28 628 m 9
 100 553 l 25
 99 382 l 25
 46 351 l 25
 6 367 l 25
 4 594 l 17
 6.74609375 606.97265625 8.63671875 620.211914062 28 628 c 9
332 657 m 25
 294 563 l 25
 104 565 l 25
 50 624 l 17
 44.2294921875 638.611328125 36.4345703125 653.756835938 70 658 c 9
 332 657 l 25
289 383 m 25
 336 330 l 25
 295 281 l 25
 124 282 l 25
 59 319 l 17
 59 346.25 l 0
 125 383 l 9
 289 383 l 25
392 305 m 9
 394 84 l 17
 390.17578125 56.216796875 384.998046875 29.458984375 357 20 c 1
 343.76953125 20 l 0
 308 111 l 9
 305 273 l 25
 353 322 l 17
 375.774414062 329.428710938 390.528320312 326.112304688 392 305 c 9
EndSplineSet
EndChar

StartChar: R
Encoding: 82 82 15
Width: 562
Flags: HW
LayerCount: 2
Fore
SplineSet
95 279 m 25
 95 279 97 110 97 111 c 0
 97 112 38 44 38 44 c 25
 20 45 l 25
 4 94 l 25
 2 291 l 17
 0.33984375 308.349609375 10.7080078125 316.93359375 41 311 c 9
 95 279 l 25
28 628 m 9
 100 553 l 25
 99 382 l 25
 46 351 l 25
 6 367 l 25
 4 594 l 17
 6.74609375 606.97265625 8.63671875 620.211914062 28 628 c 9
332 657 m 25
 294 563 l 25
 104 565 l 25
 50 624 l 17
 44.2294921875 638.611328125 36.4345703125 653.756835938 70 658 c 9
 332 657 l 25
EndSplineSet
EndChar

StartChar: S
Encoding: 83 83 16
Width: 562
Flags: HW
LayerCount: 2
Fore
SplineSet
292 97 m 25
 103 98 l 25
 42 28 l 17
 46.31640625 14.30078125 53.8203125 2.7919921875 74 0 c 9
 335 0 l 25
 292 97 l 25
28 628 m 9
 100 553 l 25
 99 382 l 25
 46 351 l 25
 6 367 l 25
 4 594 l 17
 6.74609375 606.97265625 8.63671875 620.211914062 28 628 c 9
332 657 m 25
 294 563 l 25
 104 565 l 25
 50 624 l 17
 44.2294921875 638.611328125 36.4345703125 653.756835938 70 658 c 9
 332 657 l 25
289 383 m 25
 336 330 l 25
 295 281 l 25
 124 282 l 25
 59 319 l 17
 59 346.25 l 0
 125 383 l 9
 289 383 l 25
392 305 m 9
 394 84 l 17
 390.17578125 56.216796875 384.998046875 29.458984375 357 20 c 1
 343.76953125 20 l 0
 308 111 l 9
 305 273 l 25
 353 322 l 17
 375.774414062 329.428710938 390.528320312 326.112304688 392 305 c 9
EndSplineSet
EndChar

StartChar: D
Encoding: 68 68 17
Width: 562
Flags: HW
LayerCount: 2
Fore
SplineSet
304 547 m 25
 348 652 l 17
 382.427734375 636.74609375 390.682617188 611.734375 397 586 c 9
 397 363 l 17
 389.256835938 332.551757812 372.397460938 339.252929688 357 340 c 9
 305 387 l 25
 304 547 l 25
292 97 m 25
 103 98 l 25
 42 28 l 17
 46.31640625 14.30078125 53.8203125 2.7919921875 74 0 c 9
 335 0 l 25
 292 97 l 25
95 279 m 25
 95 279 97 110 97 111 c 0
 97 112 38 44 38 44 c 25
 20 45 l 25
 4 94 l 25
 2 291 l 17
 0.33984375 308.349609375 10.7080078125 316.93359375 41 311 c 9
 95 279 l 25
289 383 m 25
 336 330 l 25
 295 281 l 25
 124 282 l 25
 59 319 l 17
 59 346.25 l 0
 125 383 l 9
 289 383 l 25
392 305 m 9
 394 84 l 17
 390.17578125 56.216796875 384.998046875 29.458984375 357 20 c 1
 343.76953125 20 l 0
 308 111 l 9
 305 273 l 25
 353 322 l 17
 375.774414062 329.428710938 390.528320312 326.112304688 392 305 c 9
EndSplineSet
EndChar

StartChar: T
Encoding: 84 84 18
Width: 562
Flags: HW
LayerCount: 2
Fore
SplineSet
292 97 m 25
 103 98 l 25
 42 28 l 17
 46.31640625 14.30078125 53.8203125 2.7919921875 74 0 c 9
 335 0 l 25
 292 97 l 25
95 279 m 25
 95 279 97 110 97 111 c 0
 97 112 38 44 38 44 c 25
 20 45 l 25
 4 94 l 25
 2 291 l 17
 0.33984375 308.349609375 10.7080078125 316.93359375 41 311 c 9
 95 279 l 25
28 628 m 9
 100 553 l 25
 99 382 l 25
 46 351 l 25
 6 367 l 25
 4 594 l 17
 6.74609375 606.97265625 8.63671875 620.211914062 28 628 c 9
289 383 m 25
 336 330 l 25
 295 281 l 25
 124 282 l 25
 59 319 l 17
 59 346.25 l 0
 125 383 l 9
 289 383 l 25
EndSplineSet
EndChar

StartChar: a
Encoding: 97 97 19
Width: 562
Flags: HW
LayerCount: 2
Fore
SplineSet
304 547 m 25
 348 652 l 17
 382.427734375 636.74609375 390.682617188 611.734375 397 586 c 9
 397 363 l 17
 389.256835938 332.551757812 372.397460938 339.252929688 357 340 c 9
 305 387 l 25
 304 547 l 25
95 279 m 25
 95 279 97 110 97 111 c 0
 97 112 38 44 38 44 c 25
 20 45 l 25
 4 94 l 25
 2 291 l 17
 0.33984375 308.349609375 10.7080078125 316.93359375 41 311 c 9
 95 279 l 25
28 628 m 9
 100 553 l 25
 99 382 l 25
 46 351 l 25
 6 367 l 25
 4 594 l 17
 6.74609375 606.97265625 8.63671875 620.211914062 28 628 c 9
332 657 m 25
 294 563 l 25
 104 565 l 25
 50 624 l 17
 44.2294921875 638.611328125 36.4345703125 653.756835938 70 658 c 9
 332 657 l 25
289 383 m 25
 336 330 l 25
 295 281 l 25
 124 282 l 25
 59 319 l 17
 59 346.25 l 0
 125 383 l 9
 289 383 l 25
392 305 m 9
 394 84 l 17
 390.17578125 56.216796875 384.998046875 29.458984375 357 20 c 1
 343.76953125 20 l 0
 308 111 l 9
 305 273 l 25
 353 322 l 17
 375.774414062 329.428710938 390.528320312 326.112304688 392 305 c 9
EndSplineSet
EndChar

StartChar: c
Encoding: 99 99 20
Width: 562
Flags: HW
LayerCount: 2
Fore
SplineSet
292 97 m 25
 103 98 l 25
 42 28 l 17
 46.31640625 14.30078125 53.8203125 2.7919921875 74 0 c 9
 335 0 l 25
 292 97 l 25
95 279 m 25
 95 279 97 110 97 111 c 0
 97 112 38 44 38 44 c 25
 20 45 l 25
 4 94 l 25
 2 291 l 17
 0.33984375 308.349609375 10.7080078125 316.93359375 41 311 c 9
 95 279 l 25
28 628 m 9
 100 553 l 25
 99 382 l 25
 46 351 l 25
 6 367 l 25
 4 594 l 17
 6.74609375 606.97265625 8.63671875 620.211914062 28 628 c 9
332 657 m 25
 294 563 l 25
 104 565 l 25
 50 624 l 17
 44.2294921875 638.611328125 36.4345703125 653.756835938 70 658 c 9
 332 657 l 25
EndSplineSet
EndChar

StartChar: d
Encoding: 100 100 21
Width: 562
Flags: HW
LayerCount: 2
Fore
SplineSet
304 547 m 25
 348 652 l 17
 382.427734375 636.74609375 390.682617188 611.734375 397 586 c 9
 397 363 l 17
 389.256835938 332.551757812 372.397460938 339.252929688 357 340 c 9
 305 387 l 25
 304 547 l 25
292 97 m 25
 103 98 l 25
 42 28 l 17
 46.31640625 14.30078125 53.8203125 2.7919921875 74 0 c 9
 335 0 l 25
 292 97 l 25
95 279 m 25
 95 279 97 110 97 111 c 0
 97 112 38 44 38 44 c 25
 20 45 l 25
 4 94 l 25
 2 291 l 17
 0.33984375 308.349609375 10.7080078125 316.93359375 41 311 c 9
 95 279 l 25
289 383 m 25
 336 330 l 25
 295 281 l 25
 124 282 l 25
 59 319 l 17
 59 346.25 l 0
 125 383 l 9
 289 383 l 25
392 305 m 9
 394 84 l 17
 390.17578125 56.216796875 384.998046875 29.458984375 357 20 c 1
 343.76953125 20 l 0
 308 111 l 9
 305 273 l 25
 353 322 l 17
 375.774414062 329.428710938 390.528320312 326.112304688 392 305 c 9
EndSplineSet
EndChar

StartChar: r
Encoding: 114 114 22
Width: 562
Flags: HW
LayerCount: 2
Fore
SplineSet
95 279 m 25
 95 279 97 110 97 111 c 0
 97 112 38 44 38 44 c 25
 20 45 l 25
 4 94 l 25
 2 291 l 17
 0.33984375 308.349609375 10.7080078125 316.93359375 41 311 c 9
 95 279 l 25
28 628 m 9
 100 553 l 25
 99 382 l 25
 46 351 l 25
 6 367 l 25
 4 594 l 17
 6.74609375 606.97265625 8.63671875 620.211914062 28 628 c 9
332 657 m 25
 294 563 l 25
 104 565 l 25
 50 624 l 17
 44.2294921875 638.611328125 36.4345703125 653.756835938 70 658 c 9
 332 657 l 25
EndSplineSet
EndChar

StartChar: s
Encoding: 115 115 23
Width: 562
Flags: HW
LayerCount: 2
Fore
SplineSet
292 97 m 25
 103 98 l 25
 42 28 l 17
 46.31640625 14.30078125 53.8203125 2.7919921875 74 0 c 9
 335 0 l 25
 292 97 l 25
28 628 m 9
 100 553 l 25
 99 382 l 25
 46 351 l 25
 6 367 l 25
 4 594 l 17
 6.74609375 606.97265625 8.63671875 620.211914062 28 628 c 9
332 657 m 25
 294 563 l 25
 104 565 l 25
 50 624 l 17
 44.2294921875 638.611328125 36.4345703125 653.756835938 70 658 c 9
 332 657 l 25
289 383 m 25
 336 330 l 25
 295 281 l 25
 124 282 l 25
 59 319 l 17
 59 346.25 l 0
 125 383 l 9
 289 383 l 25
392 305 m 9
 394 84 l 17
 390.17578125 56.216796875 384.998046875 29.458984375 357 20 c 1
 343.76953125 20 l 0
 308 111 l 9
 305 273 l 25
 353 322 l 17
 375.774414062 329.428710938 390.528320312 326.112304688 392 305 c 9
EndSplineSet
EndChar

StartChar: t
Encoding: 116 116 24
Width: 562
Flags: HW
LayerCount: 2
Fore
SplineSet
292 97 m 25
 103 98 l 25
 42 28 l 17
 46.31640625 14.30078125 53.8203125 2.7919921875 74 0 c 9
 335 0 l 25
 292 97 l 25
95 279 m 25
 95 279 97 110 97 111 c 0
 97 112 38 44 38 44 c 25
 20 45 l 25
 4 94 l 25
 2 291 l 17
 0.33984375 308.349609375 10.7080078125 316.93359375 41 311 c 9
 95 279 l 25
28 628 m 9
 100 553 l 25
 99 382 l 25
 46 351 l 25
 6 367 l 25
 4 594 l 17
 6.74609375 606.97265625 8.63671875 620.211914062 28 628 c 9
289 383 m 25
 336 330 l 25
 295 281 l 25
 124 282 l 25
 59 319 l 17
 59 346.25 l 0
 125 383 l 9
 289 383 l 25
EndSplineSet
EndChar
